<svg version="1.1" id="Layer_1" xmlns="http://www.w3.org/2000/svg" xmlns:xlink="http://www.w3.org/1999/xlink" x="0px" y="0px"
	 width="100%" viewBox="0 0 1024 480" enable-background="new 0 0 1024 480" xml:space="preserve">
<path fill="#000000" opacity="1.000000" stroke="none" 
	d="
M401.929626,347.967377 
	C417.183014,341.644104 431.535736,334.238800 446.657990,328.503723 
	C463.904022,321.963165 480.802704,314.511841 497.916992,307.616852 
	C508.108643,303.510895 518.434082,299.737885 528.680664,295.766907 
	C533.416260,293.931641 533.969177,291.652618 530.814209,287.505249 
	C525.842041,280.969055 523.581421,280.721497 516.742432,284.935791 
	C510.665100,288.680725 504.326782,292.005463 498.069733,295.454102 
	C494.403961,297.474579 491.345673,296.555664 488.898590,293.269409 
	C488.022552,292.092957 487.152039,290.912354 486.324280,289.794739 
	C478.115967,293.078400 478.128052,293.066406 471.819672,286.699646 
	C469.579773,284.439026 467.107239,281.657654 464.160919,281.352234 
	C459.590118,280.878326 461.136597,285.958862 459.499481,288.301819 
	C457.822205,290.702240 457.583557,293.535828 457.157501,296.357483 
	C456.748962,299.063324 455.519989,301.592072 452.447113,302.144989 
	C449.298065,302.711700 447.655548,300.606995 446.193939,298.173798 
	C443.174194,293.146637 443.477325,287.306854 442.025543,281.059113 
	C440.368225,283.220032 440.268982,285.132721 440.286530,286.953766 
	C440.380127,296.674225 434.982025,317.737244 430.343170,326.144928 
	C429.042664,328.502014 427.369202,330.028564 424.795502,330.752136 
	C422.042114,331.526306 419.382233,331.482513 417.332336,329.388947 
	C415.270599,327.283264 416.076660,324.659576 417.028473,322.332184 
	C417.841278,320.344757 419.095642,318.541687 420.091248,316.624146 
	C420.932251,315.004364 420.486664,313.596252 418.874817,312.870056 
	C417.184265,312.108429 416.468079,313.462799 415.963776,314.737000 
	C414.583038,318.225616 412.222260,320.946350 409.567627,323.529663 
	C404.400726,328.557556 398.690186,329.572815 392.215363,326.367401 
	C391.354645,325.941315 390.392181,325.720795 389.540405,325.427002 
	C385.173523,331.776459 378.038727,334.379639 370.409454,332.228699 
	C368.386383,331.658356 367.376312,332.333099 366.096130,333.586548 
	C364.320312,335.325256 362.495392,337.123657 360.388245,338.393127 
	C354.520355,341.928253 348.020203,339.376465 346.065155,332.838165 
	C344.374298,327.183502 343.888611,321.402832 345.080353,315.563446 
	C345.480011,313.605072 345.786804,311.482574 348.211487,310.924591 
	C350.129456,310.483246 351.953461,310.863037 353.125122,312.542603 
	C354.500061,314.513519 355.229065,316.640808 354.050720,319.081299 
	C351.879913,323.577209 351.979340,324.401123 354.731689,328.988953 
	C358.795868,327.119324 363.274658,320.160126 363.039276,316.059540 
	C362.982056,315.062592 362.840881,314.069885 362.798767,313.072693 
	C362.545044,307.061951 364.461609,304.615021 369.317627,304.717926 
	C373.829071,304.813507 376.925323,308.499695 376.474274,313.631744 
	C376.191162,316.852753 375.453918,320.033813 374.903748,323.333099 
	C382.284973,320.661560 384.909546,316.942566 383.615570,309.914185 
	C382.947479,306.285278 383.533783,302.998871 384.311584,299.598206 
	C384.814148,297.401001 385.476501,295.339355 388.174164,295.028564 
	C390.844177,294.720978 393.161804,295.437103 394.777893,297.687073 
	C398.145111,302.375061 397.578827,307.402496 395.873718,312.471252 
	C395.211090,314.440887 393.403259,316.515442 396.127686,318.168304 
	C398.677032,319.714966 400.556519,318.157227 402.161041,316.296875 
	C403.136719,315.165588 403.832184,313.755280 404.922394,312.766846 
	C408.595764,309.436462 408.199463,306.613312 404.121948,304.060120 
	C403.982147,303.972565 403.852753,303.859436 403.740631,303.737885 
	C401.017548,300.785217 397.635284,297.776825 399.382874,293.338837 
	C401.225098,288.660614 406.017365,287.692871 410.295685,287.776489 
	C414.560486,287.859894 418.279572,290.165802 419.965942,294.509644 
	C420.618805,296.191437 420.975037,298.059753 421.083954,299.866150 
	C421.296509,303.390869 423.542969,304.215759 426.738831,304.476898 
	C428.672424,301.176941 429.598358,297.509491 429.828766,293.731262 
	C430.402893,284.315399 431.603271,274.951172 432.313232,265.546265 
	C433.730865,246.766312 432.135864,228.130203 431.675873,209.445358 
	C431.430786,199.490524 430.678040,189.471695 427.367401,179.915161 
	C425.903198,175.688629 426.731781,171.320084 426.503662,167.049164 
	C426.282318,162.904266 431.311768,161.013489 435.150208,163.360931 
	C437.265137,164.654327 438.752350,166.706924 439.058807,168.964294 
	C440.348816,178.466614 445.257721,187.016769 443.574280,197.494339 
	C441.740265,208.908920 445.496216,220.583771 446.299896,232.191101 
	C447.184357,244.966171 449.234589,257.589355 451.244843,270.217438 
	C451.341949,270.827301 451.642670,271.404694 452.097290,272.712860 
	C461.848022,264.872223 468.608978,272.193542 475.591125,277.181091 
	C478.500214,279.259155 480.187683,279.078705 482.905792,277.058197 
	C488.017334,273.258575 492.691986,269.404694 495.875977,263.572510 
	C498.786377,258.241455 505.365540,258.411713 509.319794,263.217377 
	C511.688049,266.095551 512.904358,269.587250 514.257324,272.991119 
	C515.180969,275.314850 516.414490,276.052795 518.833496,274.609070 
	C524.665588,271.128235 526.417480,271.525513 530.881042,276.776459 
	C532.045532,278.146423 532.886597,279.876129 535.929871,280.801422 
	C543.524597,261.747681 552.195007,243.054810 555.476379,221.282715 
	C547.539124,223.669220 541.289368,226.139969 535.656982,230.034210 
	C533.577515,231.471954 531.370239,232.609085 528.915405,233.206635 
	C525.846313,233.953720 522.641663,234.272842 521.181213,230.749908 
	C519.812744,227.449051 522.286865,225.231613 524.704590,223.833588 
	C528.865906,221.427368 533.280518,219.437042 537.671875,217.456390 
	C542.826843,215.131317 548.179138,213.223846 553.247131,210.731079 
	C559.108215,207.848190 560.285339,194.026291 554.710144,190.798203 
	C540.720093,182.697861 536.663391,169.344147 534.676331,154.768860 
	C534.139343,150.829437 534.341797,146.791855 533.857666,142.841904 
	C533.218567,137.627808 536.515869,134.395660 539.570801,131.205902 
	C542.034607,128.633331 547.368103,129.321075 550.550659,132.060486 
	C557.166077,137.754715 559.118652,145.810226 560.970581,153.703949 
	C562.829224,161.626419 563.869873,169.741882 565.237915,177.778061 
	C566.684814,186.277344 576.100525,191.205750 583.712769,186.808548 
	C592.339783,181.825150 600.562866,176.131165 608.866211,170.603043 
	C613.902100,167.250275 619.378967,164.739853 622.976990,159.148849 
	C625.778442,154.795700 634.229553,155.405823 637.708679,159.112457 
	C641.291199,162.929245 640.738037,168.610214 636.665222,173.042816 
	C624.807739,185.947830 609.771423,193.373184 593.335510,198.399078 
	C589.120605,199.687943 584.733215,198.924438 580.424194,199.013489 
	C575.591858,199.113358 571.771301,201.127197 568.591370,204.906876 
	C580.540588,206.480927 591.841492,199.004562 603.886780,203.128082 
	C602.703735,204.953995 600.836853,206.041458 598.686462,206.721664 
	C590.274719,209.382401 581.958801,212.443359 573.404602,214.521347 
	C567.874207,215.864792 565.748474,218.806870 565.156799,224.098022 
	C563.934021,235.034332 560.927917,245.645172 557.231567,255.917633 
	C553.368774,266.652679 548.243042,276.933105 543.678833,287.416382 
	C543.360229,288.148102 543.120667,288.914185 542.880981,289.564819 
	C544.501099,291.297638 545.928711,290.096924 547.199768,289.658936 
	C562.711365,284.313660 578.047913,278.403046 593.730957,273.628174 
	C609.761169,268.747589 625.406738,262.703033 641.608582,258.339783 
	C647.370056,256.788208 653.009583,254.675293 658.835938,253.265900 
	C661.454834,252.632370 664.444702,251.853012 665.691040,255.213760 
	C667.036682,258.842346 664.365540,260.337708 661.488281,261.279205 
	C649.314026,265.262756 636.982117,268.811005 624.967163,273.224396 
	C604.843018,280.616486 584.281921,286.700928 564.200562,294.250732 
	C550.051147,299.570374 535.699341,304.403198 521.492126,309.620941 
	C502.131683,316.731262 482.915497,324.187805 463.773346,331.859619 
	C430.101318,345.354767 397.005981,360.188232 363.856140,374.884033 
	C353.823608,379.331635 343.967438,384.215607 333.914398,388.651917 
	C325.093170,392.544647 319.806702,400.607819 312.883636,406.728638 
	C303.151306,415.333099 293.746521,424.402954 280.157684,426.420013 
	C276.447662,426.970673 272.208435,427.691895 268.928589,426.447021 
	C264.949036,424.936584 262.109100,425.936676 259.158661,427.784729 
	C247.463638,435.110168 235.832367,442.538300 224.230209,450.010254 
	C222.572235,451.078033 221.087387,452.486877 219.734863,453.936157 
	C218.420990,455.343903 217.583084,457.921753 215.134613,456.584106 
	C212.678101,455.242096 211.358475,452.807953 211.946762,449.837494 
	C212.418076,447.457733 213.745102,445.747681 215.936661,444.418304 
	C228.297836,436.920258 240.577225,429.287140 252.872421,421.680573 
	C258.335449,418.300842 258.292664,418.302673 254.528381,413.285278 
	C247.929901,404.490173 244.043304,394.316345 241.127869,383.952209 
	C236.753479,368.401672 233.765503,352.497620 234.075577,336.214569 
	C234.237823,327.694977 235.684021,319.327362 238.619644,311.283051 
	C241.400650,303.662445 243.430435,295.804810 247.388840,288.572937 
	C257.719025,269.699982 272.297394,257.695648 294.812531,257.613251 
	C297.128082,257.604767 299.445404,256.928741 301.755798,256.964081 
	C304.937408,257.012756 306.358917,255.698273 307.342957,252.613815 
	C309.158691,246.922363 311.231567,241.241119 313.904816,235.910416 
	C319.051178,225.648117 328.248901,219.022232 337.913361,214.100128 
	C349.022766,208.442078 355.879547,200.418762 359.202087,188.733871 
	C360.151855,185.393707 361.472229,182.090179 363.104065,179.026230 
	C367.193268,171.348312 369.997467,163.210800 372.456848,154.917084 
	C373.439514,151.603333 373.939209,147.742249 378.463989,147.316437 
	C381.141602,147.064468 387.027466,152.571884 387.918243,156.150482 
	C389.085754,160.841202 388.169098,165.235107 384.583740,168.550430 
	C380.129730,172.668961 377.161591,177.061508 378.006561,183.594299 
	C378.373108,186.428146 376.328491,189.380569 373.936890,190.610916 
	C370.029816,192.620926 368.409698,195.932770 367.425598,199.600525 
	C365.431793,207.031769 360.927094,213.077637 356.907196,219.339600 
	C350.478821,229.353424 346.766663,240.555496 342.465546,251.459946 
	C340.483795,256.484131 337.239380,260.890656 336.172729,266.476135 
	C335.495392,270.022888 335.744507,272.990723 336.823517,276.079773 
	C340.769531,287.376526 341.491058,298.814575 338.710114,310.465668 
	C338.518188,311.269775 338.151917,312.187836 338.361816,312.908722 
	C340.983276,321.910614 340.176117,331.363190 342.102173,340.516052 
	C343.087433,345.198212 341.316650,350.482849 340.671997,355.479797 
	C339.877167,361.640991 337.510223,367.359863 335.470642,373.165161 
	C335.040039,374.390747 334.142273,375.524231 335.186890,377.661530 
	C357.653534,368.634186 378.685394,356.213715 401.929626,347.967377 
M322.125336,300.843994 
	C319.284058,300.422760 318.965668,303.018402 318.195160,304.549042 
	C312.519562,315.823883 307.261200,327.313446 301.400696,338.488525 
	C298.526794,343.968658 297.760986,350.017700 293.270233,355.316772 
	C286.963104,362.759155 282.714569,372.121521 277.556885,380.646973 
	C274.992584,384.885590 270.973816,385.021454 267.282867,385.039856 
	C263.730133,385.057526 262.734802,381.544403 262.531952,378.417114 
	C261.598816,364.030975 260.671539,349.643158 259.939606,335.245911 
	C259.660583,329.757507 262.610687,328.213623 267.537598,330.926483 
	C275.382996,335.246399 278.637024,344.626221 275.348572,353.246185 
	C273.867218,357.129120 272.054382,361.002014 273.139740,365.315399 
	C275.358948,365.372833 276.045929,364.201355 276.707214,363.030151 
	C279.324463,358.394928 282.080566,353.830200 284.508606,349.097412 
	C294.451599,329.716370 304.138733,310.211609 313.028809,290.314362 
	C314.415588,287.210510 314.845856,284.767426 312.466003,282.133362 
	C311.586700,281.160126 310.613007,279.995575 310.359253,278.777283 
	C308.232880,268.568878 301.774017,265.435913 292.112823,267.297913 
	C291.954926,267.328339 291.776611,267.245972 291.616058,267.270386 
	C282.848938,268.604950 274.721497,271.377594 269.672638,279.238037 
	C266.499023,284.178955 262.692047,288.702789 259.380707,293.505707 
	C257.159180,296.727936 254.805969,299.391144 254.231750,303.359375 
	C254.124664,304.099426 253.483566,304.845032 252.919296,305.422333 
	C249.809006,308.604401 249.008041,312.665070 248.436905,316.831604 
	C248.211838,318.473572 248.136597,320.166626 247.668457,321.739807 
	C244.722397,331.639893 242.533722,341.506042 244.134720,352.045288 
	C246.276596,366.145233 249.021927,380.018372 255.234116,392.962463 
	C258.168823,399.077423 263.332916,403.912598 265.274017,410.679535 
	C265.958191,413.064575 268.262878,412.962585 270.285706,411.772644 
	C284.351135,403.498505 299.124176,396.565186 313.536591,388.948669 
	C315.180847,388.079712 316.633911,387.021912 317.636963,385.398071 
	C325.375092,372.871033 330.531097,359.511688 330.788513,344.581085 
	C330.835785,341.839203 331.528168,338.778442 327.036621,338.610687 
	C325.456085,338.551636 324.894165,336.684937 324.850159,335.084625 
	C324.781403,332.584900 324.671448,330.065521 325.537048,327.660461 
	C328.874847,318.386108 327.278229,309.669861 322.125336,300.843994 
M328.726318,255.090515 
	C331.497559,244.999100 337.450409,236.138885 340.195679,225.867691 
	C337.875702,228.936493 335.228394,231.005768 331.496094,231.773224 
	C330.439240,231.990555 329.774872,233.715530 328.735504,234.486023 
	C323.162842,238.617096 324.338745,246.252335 319.865875,251.180786 
	C317.620850,253.654419 316.678162,258.523651 320.558563,260.846924 
	C325.542145,263.830658 326.288849,258.327972 328.726318,255.090515 
M547.444824,149.518326 
	C545.793091,148.308334 545.523193,149.462982 545.268799,150.758148 
	C543.502319,159.751236 547.064209,167.376297 551.494873,174.745026 
	C552.049622,175.667694 553.032043,176.595657 554.869812,175.469376 
	C554.195190,166.670593 551.875061,158.147507 547.444824,149.518326 
M498.038971,286.447540 
	C501.039795,285.418365 504.339630,284.660278 503.892792,280.344543 
	C503.726532,278.738831 503.114777,277.250854 501.247375,277.331299 
	C497.478455,277.493683 496.111115,280.494476 494.690094,283.331665 
	C494.547089,283.617126 494.495300,283.970215 494.482300,284.295197 
	C494.401428,286.310944 495.481598,286.936005 498.038971,286.447540 
M615.586609,175.136871 
	C613.583313,177.248901 610.704956,177.940262 608.405823,179.557114 
	C606.320190,181.023819 603.366882,181.490921 602.496277,184.450821 
	C610.570618,179.747345 619.922974,176.954086 625.162476,168.182571 
	C622.139099,170.330139 619.115784,172.477707 615.586609,175.136871 
M287.565338,412.191803 
	C282.248322,414.961975 282.248322,414.961975 280.551392,417.273956 
	C285.491730,416.727936 289.442169,414.557709 292.227509,410.273071 
	C290.894684,410.836151 289.561859,411.399231 287.565338,412.191803 
z"/>
<path fill="#000000" opacity="1.000000" stroke="none" 
	d="
M540.904419,326.810089 
	C538.508118,329.604004 536.072205,330.539734 533.396667,327.976135 
	C530.804199,325.492157 528.390198,326.372040 526.407593,328.408295 
	C523.888000,330.996002 520.997620,332.874451 517.661804,333.985626 
	C506.985931,337.541870 501.225800,346.742615 494.525909,354.596710 
	C488.369385,361.813812 481.546967,368.342224 475.213135,375.353180 
	C471.879639,379.042999 468.076569,381.474823 462.889526,379.657135 
	C459.247284,378.380768 455.654144,371.895142 455.842163,366.745270 
	C455.999451,362.436981 456.593079,358.146240 456.865295,353.839630 
	C456.956268,352.400299 457.257477,350.636627 455.758728,349.724304 
	C453.977386,348.639954 452.523102,350.033630 451.289917,351.012970 
	C444.896576,356.090302 438.984894,361.652863 434.673035,368.690735 
	C433.707489,370.266693 432.905609,372.272888 430.668671,371.727722 
	C428.438110,371.184143 427.771912,369.207123 427.750916,367.032715 
	C427.731659,365.038910 427.682037,363.045258 427.631256,361.051880 
	C427.591553,359.493134 427.662811,357.664673 429.415649,357.352386 
	C433.393585,356.643677 434.942566,353.400757 437.115723,350.736877 
	C441.635315,345.196747 447.662170,341.517822 453.895782,338.474030 
	C459.780579,335.600464 464.593384,338.522980 466.522400,344.876282 
	C468.258545,350.594360 466.390228,356.086182 465.842712,361.666565 
	C465.713501,362.983185 465.408691,364.292267 465.391510,365.607513 
	C465.372681,367.048767 465.041473,368.819702 466.929779,369.409363 
	C468.506775,369.901855 469.181702,368.414429 470.169403,367.569794 
	C480.830414,358.453247 489.015594,347.048126 498.523346,336.866028 
	C503.411530,331.631165 509.408173,328.167725 515.565063,324.929749 
	C517.895203,323.704346 520.417908,322.787323 522.654358,321.335175 
	C524.392944,320.206207 526.248352,319.688843 528.335571,319.873932 
	C537.682983,320.702972 551.807373,315.519440 558.720886,309.369446 
	C563.883972,304.776581 570.773499,305.303467 577.111328,304.424408 
	C578.559570,304.223541 580.080505,304.614532 581.567444,304.607544 
	C583.377502,304.599030 585.114990,304.985291 585.532898,306.892059 
	C586.061340,309.303253 584.044922,309.917908 582.266663,310.488617 
	C580.048950,311.200409 577.860474,312.137543 575.583435,312.498932 
	C572.161072,313.042206 569.274048,314.379578 566.711792,316.691498 
	C565.765198,317.545624 564.421997,318.511078 563.269836,318.498505 
	C554.847778,318.406616 548.211426,322.998138 540.904419,326.810089 
z"/>
<path fill="#000000" opacity="1.000000" stroke="none" 
	d="
M644.306335,317.605164 
	C647.621094,316.222595 651.179993,316.459137 653.347046,313.229279 
	C654.363770,311.713867 656.481934,311.405334 658.262878,312.804199 
	C660.505432,314.565643 661.748230,316.798615 661.424255,319.717529 
	C661.177979,321.936218 659.587158,323.111542 657.658386,322.962158 
	C650.110168,322.377411 643.383179,325.350128 636.424377,327.413239 
	C633.468750,328.289459 630.812378,328.126709 628.120178,325.800140 
	C624.239746,322.446747 619.991272,325.564453 616.451965,326.815918 
	C605.404907,330.721954 593.622131,332.793915 583.634155,339.534058 
	C580.737244,341.488953 578.948853,339.096710 577.814209,336.775970 
	C576.194824,333.463989 576.649231,330.123749 580.387512,328.965851 
	C589.401306,326.173920 598.313538,322.904449 607.790222,321.815613 
	C614.525330,321.041718 621.300598,320.481384 627.747375,318.048218 
	C629.064636,317.551025 630.796143,317.438538 632.131653,317.836609 
	C636.125916,319.027222 640.009460,318.655334 644.306335,317.605164 
z"/>
<path fill="#000000" opacity="1.000000" stroke="none" 
	d="
M610.354614,294.352051 
	C605.349182,296.636597 601.670898,299.830475 599.478088,304.557098 
	C596.731201,310.477997 595.883911,310.726379 589.372253,307.393890 
	C592.559326,290.646149 605.862183,281.921600 618.599304,288.573975 
	C616.772217,291.671631 613.561768,292.719421 610.354614,294.352051 
z"/>
<path fill="#000000" opacity="1.000000" stroke="none" 
	d="
M637.266052,285.543335 
	C632.234802,286.713379 630.894226,284.113190 630.832275,280.148224 
	C630.763611,275.756958 633.488647,273.500336 637.221252,272.260803 
	C640.568726,271.149170 643.746765,271.787628 645.392212,275.086639 
	C646.644470,277.597260 648.806580,277.943176 650.921570,278.799103 
	C652.826050,279.569855 654.548462,280.671204 654.346252,283.140900 
	C654.154663,285.480408 652.552734,286.538086 650.524048,287.217682 
	C647.730042,288.153625 645.004761,288.287628 642.301514,286.885590 
	C640.845947,286.130646 639.463196,285.059967 637.266052,285.543335 
z"/>
</svg>